#N canvas 0 23 450 560 10;
#X obj 49 345 +~;
#X obj 198 332 *~;
#X obj 311 318 pack 0 50;
#X obj 311 339 line~;
#X obj 52 453 osc~;
#X obj 198 298 osc~ 1;
#X obj 311 297 / 1;
#X obj 232 472 *~;
#X obj 345 458 pack 0 50;
#X obj 345 479 line~;
#X obj 232 444 osc~ 1;
#X obj 345 437 / 2;
#X obj 236 419 / 2;
#X obj 308 247 inlet;
#X obj 44 289 inlet;
#X obj 192 243 inlet;
#X obj 49 491 outlet~;
#X obj 235 378 inlet;
#X obj 339 392 inlet;
#X connect 0 0 4 0;
#X connect 1 0 0 1;
#X connect 2 0 3 0;
#X connect 3 0 1 1;
#X connect 4 0 16 0;
#X connect 5 0 1 0;
#X connect 6 0 2 0;
#X connect 7 0 0 1;
#X connect 8 0 9 0;
#X connect 9 0 7 1;
#X connect 10 0 7 0;
#X connect 11 0 8 0;
#X connect 12 0 10 0;
#X connect 13 0 6 0;
#X connect 14 0 0 0;
#X connect 15 0 5 0;
#X connect 17 0 12 0;
#X connect 18 0 11 0;
