#N canvas 796 58 1070 726 10;
#X obj 49 345 +~;
#X obj 198 332 *~;
#X obj 311 318 pack 0 50;
#X obj 311 339 line~;
#X obj 198 256 r oscFreq2;
#X obj 134 541 r onOff;
#X obj 55 603 *~;
#X obj 55 656 dac~;
#X obj 311 254 r modIndex;
#X obj 49 289 r oscFreq;
#X obj 437 163 metro 1000;
#X obj 565 230 f;
#X obj 606 227 + 1;
#X obj 567 267 mod 8;
#X obj 568 304 select 0 1 2 3 4 5 6 7;
#X obj 597 364 f;
#X obj 567 364 f;
#X obj 659 364 f;
#X obj 629 364 f;
#X obj 719 364 f;
#X obj 689 364 f;
#X obj 781 364 f;
#X obj 751 364 f;
#X floatatom 607 416 5 0 0 0 - - -, f 5;
#X floatatom 570 416 5 0 0 0 - - -, f 5;
#X floatatom 684 415 5 0 0 0 - - -, f 5;
#X floatatom 647 415 5 0 0 0 - - -, f 5;
#X floatatom 699 455 5 0 0 0 - - -, f 5;
#X floatatom 662 455 5 0 0 0 - - -, f 5;
#X floatatom 776 454 5 0 0 0 - - -, f 5;
#X floatatom 739 454 5 0 0 0 - - -, f 5;
#X obj 558 524 f;
#X msg 536 102 1;
#X msg 571 100 2;
#X msg 610 101 1.2;
#X msg 645 99 1.75;
#X msg 587 130 0.5;
#X msg 622 128 0.4;
#X msg 661 129 0.75;
#X msg 696 127 1.4;
#X obj 439 105 bng 15 250 50 0 empty empty empty 17 7 0 10 -262144
-1 -1;
#X obj 52 453 osc~;
#X obj 198 298 osc~ 1;
#X obj 311 297 / 1;
#X obj 232 472 *~;
#X obj 345 458 pack 0 50;
#X obj 345 479 line~;
#X obj 232 396 r oscFreq2;
#X obj 345 394 r modIndex;
#X obj 232 444 osc~ 1;
#X obj 345 437 / 2;
#X obj 236 419 / 2;
#X obj 52 425 *~;
#X obj 50 539 *~;
#X obj 63 477 vline~;
#X msg 90 501 0.25 20 \, 0.2 10 20 \, 0 750 40;
#X obj 294 583 delwrite~ del1 500;
#X obj 295 610 delread~ del1 500;
#X obj 295 638 *~ 0.5;
#X obj 347 679 delwrite~ del2 500;
#X obj 192 672 delread~ del2 250;
#X connect 0 0 52 0;
#X connect 1 0 0 1;
#X connect 2 0 3 0;
#X connect 3 0 1 1;
#X connect 4 0 42 0;
#X connect 5 0 6 1;
#X connect 5 0 10 0;
#X connect 6 0 7 0;
#X connect 6 0 7 1;
#X connect 8 0 43 0;
#X connect 9 0 0 0;
#X connect 10 0 11 0;
#X connect 10 0 40 0;
#X connect 10 0 55 0;
#X connect 11 0 12 0;
#X connect 11 0 13 0;
#X connect 12 0 11 1;
#X connect 13 0 14 0;
#X connect 14 0 16 0;
#X connect 14 1 15 0;
#X connect 14 2 18 0;
#X connect 14 3 17 0;
#X connect 14 4 20 0;
#X connect 14 5 19 0;
#X connect 14 6 22 0;
#X connect 14 7 21 0;
#X connect 15 0 31 0;
#X connect 16 0 31 0;
#X connect 17 0 31 0;
#X connect 18 0 31 0;
#X connect 19 0 31 0;
#X connect 20 0 31 0;
#X connect 21 0 31 0;
#X connect 22 0 31 0;
#X connect 23 0 15 1;
#X connect 24 0 16 1;
#X connect 25 0 17 1;
#X connect 26 0 18 1;
#X connect 27 0 19 1;
#X connect 28 0 20 1;
#X connect 29 0 21 1;
#X connect 30 0 22 1;
#X connect 31 0 52 1;
#X connect 32 0 24 0;
#X connect 33 0 23 0;
#X connect 34 0 26 0;
#X connect 35 0 25 0;
#X connect 36 0 28 0;
#X connect 37 0 27 0;
#X connect 38 0 30 0;
#X connect 39 0 29 0;
#X connect 40 0 32 0;
#X connect 40 0 33 0;
#X connect 40 0 34 0;
#X connect 40 0 35 0;
#X connect 40 0 36 0;
#X connect 40 0 37 0;
#X connect 40 0 38 0;
#X connect 40 0 39 0;
#X connect 41 0 53 0;
#X connect 42 0 1 0;
#X connect 43 0 2 0;
#X connect 44 0 0 1;
#X connect 45 0 46 0;
#X connect 46 0 44 1;
#X connect 47 0 51 0;
#X connect 48 0 50 0;
#X connect 49 0 44 0;
#X connect 50 0 45 0;
#X connect 51 0 49 0;
#X connect 52 0 41 0;
#X connect 53 0 6 0;
#X connect 53 0 56 0;
#X connect 54 0 53 1;
#X connect 55 0 54 0;
#X connect 57 0 58 0;
#X connect 58 0 6 0;
#X connect 58 0 59 0;
#X connect 60 0 6 0;
