#N canvas 246 114 1070 726 10;
#X obj 49 345 +~;
#X obj 51 374 cos~;
#X obj 150 359 *~;
#X obj 263 324 / 100;
#X obj 263 345 pack 0 50;
#X obj 263 366 line~;
#X obj 49 407 *~ 0.25;
#X obj 150 283 r oscFreq2;
#X obj 154 464 r onOff;
#X obj 59 447 *~;
#X obj 65 536 dac~;
#X obj 263 281 r modIndex;
#X obj 49 324 phasor~ 220;
#X obj 150 325 osc~ 220;
#X obj 50 170 r oscFreq;
#X connect 0 0 1 0;
#X connect 1 0 6 0;
#X connect 2 0 0 1;
#X connect 3 0 4 0;
#X connect 4 0 5 0;
#X connect 5 0 2 1;
#X connect 6 0 9 0;
#X connect 7 0 13 0;
#X connect 8 0 9 1;
#X connect 9 0 10 0;
#X connect 9 0 10 1;
#X connect 11 0 3 0;
#X connect 12 0 0 0;
#X connect 13 0 2 0;
#X connect 14 0 12 0;
