#N canvas 0 23 450 300 10;
#X obj 237 123 *~ 0.25;
#X obj 236 150 *~;
#X obj 252 224 dac~;
#X obj 331 154 r onOff;
#X obj 330 97 s onOff;
#X obj 332 68 tgl 15 0 empty empty empty 17 7 0 10 -262144 -1 -1 0
1;
#X obj 237 101 osc~ 220;
#X msg 123 41 330;
#X obj 231 51 r oscFreq;
#X obj 124 71 s oscFreq;
#X connect 0 0 1 0;
#X connect 1 0 2 0;
#X connect 1 0 2 1;
#X connect 3 0 1 1;
#X connect 5 0 4 0;
#X connect 6 0 0 0;
#X connect 7 0 9 0;
#X connect 8 0 6 0;
