#N canvas 246 114 1070 726 10;
#X obj 49 345 +~;
#X obj 150 359 *~;
#X obj 263 324 / 100;
#X obj 263 345 pack 0 50;
#X obj 263 366 line~;
#X obj 49 407 *~ 0.25;
#X obj 150 283 r oscFreq2;
#X obj 154 464 r onOff;
#X obj 59 447 *~;
#X obj 65 536 dac~;
#X obj 263 281 r modIndex;
#X obj 150 325 osc~ 220;
#X obj 49 289 r oscFreq;
#X obj 312 489 *~;
#X obj 312 455 osc~ 220;
#X obj 425 454 / 100;
#X obj 425 475 pack 0 50;
#X obj 425 496 line~;
#X obj 429 403 * 0.5;
#X obj 315 416 * 3;
#X obj 568 189 metro 1000;
#X obj 565 230 f;
#X obj 606 227 + 1;
#X obj 567 267 mod 8;
#X obj 568 304 select 0 1 2 3 4 5 6 7;
#X obj 597 364 f;
#X obj 567 364 f;
#X obj 659 364 f;
#X obj 629 364 f;
#X obj 719 364 f;
#X obj 689 364 f;
#X obj 781 364 f;
#X obj 751 364 f;
#X floatatom 607 416 5 0 0 0 - - -, f 5;
#X floatatom 570 416 5 0 0 0 - - -, f 5;
#X floatatom 684 415 5 0 0 0 - - -, f 5;
#X floatatom 647 415 5 0 0 0 - - -, f 5;
#X floatatom 699 455 5 0 0 0 - - -, f 5;
#X floatatom 662 455 5 0 0 0 - - -, f 5;
#X floatatom 776 454 5 0 0 0 - - -, f 5;
#X floatatom 739 454 5 0 0 0 - - -, f 5;
#X obj 558 524 f;
#X msg 536 102 1;
#X msg 571 100 2;
#X msg 610 101 1.2;
#X msg 645 99 1.75;
#X msg 587 130 0.5;
#X msg 622 128 0.4;
#X msg 661 129 0.75;
#X msg 696 127 1.4;
#X obj 559 29 bng 15 250 50 0 empty empty empty 17 7 0 10 -262144 -1
-1;
#X obj 49 324 osc~ 440;
#X connect 0 0 5 0;
#X connect 1 0 0 1;
#X connect 2 0 3 0;
#X connect 3 0 4 0;
#X connect 4 0 1 1;
#X connect 5 0 8 0;
#X connect 6 0 11 0;
#X connect 6 0 19 0;
#X connect 7 0 8 1;
#X connect 8 0 9 0;
#X connect 8 0 9 1;
#X connect 10 0 2 0;
#X connect 10 0 18 0;
#X connect 11 0 1 0;
#X connect 12 0 51 0;
#X connect 13 0 0 1;
#X connect 14 0 13 0;
#X connect 15 0 16 0;
#X connect 16 0 17 0;
#X connect 17 0 13 1;
#X connect 18 0 15 0;
#X connect 19 0 14 0;
#X connect 20 0 21 0;
#X connect 21 0 22 0;
#X connect 21 0 23 0;
#X connect 22 0 21 1;
#X connect 23 0 24 0;
#X connect 24 0 26 0;
#X connect 24 1 25 0;
#X connect 24 2 28 0;
#X connect 24 3 27 0;
#X connect 24 4 30 0;
#X connect 24 5 29 0;
#X connect 24 6 32 0;
#X connect 24 7 31 0;
#X connect 25 0 41 0;
#X connect 26 0 41 0;
#X connect 27 0 41 0;
#X connect 28 0 41 0;
#X connect 29 0 41 0;
#X connect 30 0 41 0;
#X connect 31 0 41 0;
#X connect 32 0 41 0;
#X connect 33 0 25 1;
#X connect 34 0 26 1;
#X connect 35 0 27 1;
#X connect 36 0 28 1;
#X connect 37 0 29 1;
#X connect 38 0 30 1;
#X connect 39 0 31 1;
#X connect 40 0 32 1;
#X connect 42 0 34 0;
#X connect 43 0 33 0;
#X connect 44 0 36 0;
#X connect 45 0 35 0;
#X connect 46 0 38 0;
#X connect 47 0 37 0;
#X connect 48 0 40 0;
#X connect 49 0 39 0;
#X connect 50 0 42 0;
#X connect 50 0 43 0;
#X connect 50 0 44 0;
#X connect 50 0 45 0;
#X connect 50 0 46 0;
#X connect 50 0 47 0;
#X connect 50 0 48 0;
#X connect 50 0 49 0;
#X connect 51 0 0 0;
