#N canvas 561 171 450 300 10;
#X obj 131 101 phasor~;
#X obj 133 180 expr~ $v1>$f2;
#X obj 134 208 *~ 2;
#X obj 141 239 -~ 1;
#X obj 129 59 inlet;
#X obj 184 61 inlet;
#X obj 169 269 outlet~;
#X connect 0 0 1 0;
#X connect 1 0 2 0;
#X connect 2 0 3 0;
#X connect 3 0 6 0;
#X connect 4 0 0 0;
#X connect 5 0 1 0;
