#N canvas 35 45 1680 893 10;
#X obj 44 163 f;
#X obj 85 163 + 1;
#X floatatom 44 219 5 0 0 0 - - -, f 5;
#X floatatom 44 308 5 0 0 0 - - -, f 5;
#X obj 44 246 tabread pitches;
#X obj 631 21 table pitches;
#X floatatom 181 219 5 0 0 0 - - -, f 5;
#X floatatom 181 302 5 0 0 0 - - -, f 5;
#X obj 181 246 tabread pitches;
#X obj 181 329 osc~;
#X obj 181 163 +;
#X msg 192 100 3;
#X obj 181 274 * 880;
#X msg 192 72 5;
#X obj 44 479 *~;
#X obj 105 487 vline~;
#X obj 181 357 *~;
#X obj 56 702 dac~;
#X floatatom 399 219 5 0 0 0 - - -, f 5;
#X floatatom 399 302 5 0 0 0 - - -, f 5;
#X obj 399 246 tabread pitches;
#X obj 392 135 +;
#X obj 347 534 vline~;
#X obj 374 372 *~;
#X msg 414 108 6;
#X obj 399 274 * 1320;
#X obj 605 191 f;
#X obj 646 191 + 1;
#X msg 579 298 2;
#X msg 618 298 3;
#X msg 579 326 4;
#X msg 618 326 6;
#X msg 618 354 9;
#X obj 132 54 * 0.5;
#X obj 44 135 metro 1000;
#X obj 605 163 metro 1000;
#X obj 861 14 table velocity;
#X obj 271 602 random 12;
#X floatatom 271 630 5 0 0 0 - - -, f 5;
#X obj 271 657 tabread velocity;
#X obj 244 702 *~;
#X msg 870 69 \; velocity 0 0.1 0.2 0.3 0.4 0.5 0.6 0.7 0.6 0.5 0.4
0.3 0.2;
#X obj 44 274 * 660;
#X msg 403 54 9;
#X obj 86 53 * 2;
#X obj 44 191 % 16;
#X obj 181 191 % 12;
#X obj 694 266 f;
#X obj 735 266 + 1;
#X floatatom 694 322 5 0 0 0 - - -, f 5;
#X floatatom 694 405 5 0 0 0 - - -, f 5;
#X obj 694 349 tabread pitches;
#X floatatom 831 322 5 0 0 0 - - -, f 5;
#X floatatom 830 405 5 0 0 0 - - -, f 5;
#X obj 831 349 tabread pitches;
#X obj 831 432 osc~;
#X obj 831 266 +;
#X obj 831 377 * 880;
#X obj 694 582 *~;
#X obj 755 590 vline~;
#X obj 831 460 *~;
#X floatatom 1049 322 5 0 0 0 - - -, f 5;
#X floatatom 1049 405 5 0 0 0 - - -, f 5;
#X obj 1049 349 tabread pitches;
#X obj 1049 432 osc~;
#X obj 1042 238 +;
#X obj 997 637 vline~;
#X obj 1024 475 *~;
#X obj 1049 377 * 1320;
#X obj 1255 294 f;
#X obj 1296 294 + 1;
#X msg 1229 401 2;
#X msg 1268 401 3;
#X msg 1229 429 4;
#X msg 1268 429 6;
#X obj 694 238 metro 1000;
#X obj 1255 266 metro 1000;
#X obj 921 705 random 12;
#X floatatom 921 733 5 0 0 0 - - -, f 5;
#X obj 921 760 tabread velocity;
#X obj 894 805 *~;
#X obj 694 377 * 660;
#X obj 694 294 % 16;
#X obj 737 151 * 3;
#X obj 782 157 * 1.5;
#X msg 842 175 7;
#X msg 1053 157 11;
#X msg 1064 211 5;
#X msg 842 203 15;
#X msg 1084 637 0.25 20 \, 0.1 10 20 \, 0 350 40;
#X obj 2 536 delwrite~ del 500;
#X obj 175 799 delread~ del 120;
#X obj 30 82 s delt;
#X obj 190 773 r delt;
#X msg 652 354 24;
#X msg 1302 457 18;
#X msg 1268 457 15;
#X obj 399 329 fmunit;
#X floatatom 458 277 5 0 0 0 - - -, f 5;
#X floatatom 458 296 5 0 0 0 - - -, f 5;
#X floatatom 461 316 5 0 0 0 - - -, f 5;
#X floatatom 461 337 5 0 0 0 - - -, f 5;
#X obj 647 646 delwrite~ del2 500;
#X obj 325 798 delread~ del 120;
#X obj 327 830 *~ 0.3;
#X obj 177 832 *~ 0.3;
#X obj 340 772 r delt2;
#X obj 845 128 s delt2;
#X obj 1505 226 vsl 15 128 0 1 0 0 empty empty empty 0 -9 0 10 -262144
-1 -1 0 1;
#X floatatom 1511 385 5 0 0 0 - - -, f 5;
#X floatatom 1485 517 5 0 0 0 - - -, f 5;
#X floatatom 1446 404 5 0 1 0 - - -, f 5;
#X obj 1396 394 / 1000;
#X obj 1486 453 expr $f1 > $f2;
#X obj 1406 358 random 1000;
#X obj 43 108 r onOff;
#X obj 176 22 r oscFreq;
#X obj 640 111 r oscFreq2;
#X obj 490 12 r onOff;
#X obj 468 29 bng 15 250 50 0 empty empty empty 17 7 0 10 -262144 -1
-1;
#X obj 566 408 r modIndex;
#X msg 491 54 \; pitches 0 0.2 0.3 0.5 0.4 0.5 0.5 0.2 0.5 0.6 0.8
0.4 0.2 0.5 0.6 0.4 0.2 0.4 0.2 0.3 0.6 0.8 0.7 0.5 0.2 0.1 0.1;
#X obj 82 603 *~ 0.4;
#X obj 1473 562 *~ 1;
#X obj 1366 92 s onOff;
#X obj 1350 68 tgl 15 0 empty empty empty 17 7 0 10 -262144 -1 -1 1
1;
#X msg 1300 125 300;
#X obj 1370 163 s oscFreq;
#X obj 1369 194 s oscFreq2;
#X msg 1313 166 550;
#X obj 568 448 * 10;
#X msg 1460 109 15;
#X obj 1455 141 s modIndex;
#X obj 418 372 *~ 0.3;
#X msg 434 534 0.25 20 \, 0.1 10 20 \, 0 450 100;
#X msg 759 504 0.25 20 \, 0.1 10 20 \, 0 320 40;
#X obj 504 486 * 15;
#X obj 46 351 pwm;
#X obj 713 516 pwm;
#X obj 125 345 / 100;
#X msg 109 401 0.25 20 \, 0.1 10 20 \, 0 275 40;
#X obj 775 451 / 100;
#X obj 399 191 % 24;
#X obj 831 294 % 32;
#X obj 1049 294 % 18;
#X connect 0 0 1 0;
#X connect 0 0 10 0;
#X connect 0 0 45 0;
#X connect 1 0 0 1;
#X connect 2 0 4 0;
#X connect 3 0 137 0;
#X connect 4 0 42 0;
#X connect 6 0 8 0;
#X connect 7 0 9 0;
#X connect 8 0 12 0;
#X connect 9 0 16 0;
#X connect 10 0 46 0;
#X connect 11 0 10 1;
#X connect 12 0 7 0;
#X connect 13 0 10 1;
#X connect 14 0 90 0;
#X connect 14 0 122 0;
#X connect 15 0 14 1;
#X connect 15 0 16 1;
#X connect 16 0 14 0;
#X connect 18 0 20 0;
#X connect 19 0 97 0;
#X connect 19 0 98 0;
#X connect 19 0 139 0;
#X connect 20 0 25 0;
#X connect 21 0 142 0;
#X connect 22 0 23 1;
#X connect 23 0 40 0;
#X connect 23 0 90 0;
#X connect 24 0 21 1;
#X connect 25 0 19 0;
#X connect 26 0 27 0;
#X connect 26 0 21 0;
#X connect 27 0 26 1;
#X connect 28 0 142 1;
#X connect 29 0 142 1;
#X connect 30 0 142 1;
#X connect 31 0 142 1;
#X connect 32 0 142 1;
#X connect 33 0 35 1;
#X connect 34 0 0 0;
#X connect 34 0 140 0;
#X connect 35 0 26 0;
#X connect 35 0 134 0;
#X connect 35 0 37 0;
#X connect 37 0 38 0;
#X connect 38 0 39 0;
#X connect 39 0 40 1;
#X connect 40 0 122 0;
#X connect 42 0 3 0;
#X connect 43 0 21 1;
#X connect 44 0 34 1;
#X connect 45 0 2 0;
#X connect 46 0 6 0;
#X connect 47 0 48 0;
#X connect 47 0 56 0;
#X connect 47 0 82 0;
#X connect 48 0 47 1;
#X connect 49 0 51 0;
#X connect 50 0 138 0;
#X connect 51 0 81 0;
#X connect 52 0 54 0;
#X connect 53 0 55 0;
#X connect 53 0 100 0;
#X connect 53 0 141 0;
#X connect 54 0 57 0;
#X connect 55 0 60 0;
#X connect 56 0 143 0;
#X connect 57 0 53 0;
#X connect 58 0 102 0;
#X connect 58 0 122 0;
#X connect 59 0 58 1;
#X connect 59 0 60 1;
#X connect 60 0 58 0;
#X connect 61 0 63 0;
#X connect 62 0 64 0;
#X connect 62 0 99 0;
#X connect 63 0 68 0;
#X connect 64 0 123 0;
#X connect 65 0 144 0;
#X connect 66 0 67 1;
#X connect 67 0 80 0;
#X connect 68 0 62 0;
#X connect 69 0 70 0;
#X connect 69 0 65 0;
#X connect 70 0 69 1;
#X connect 71 0 144 1;
#X connect 72 0 144 1;
#X connect 73 0 144 1;
#X connect 74 0 144 1;
#X connect 75 0 47 0;
#X connect 75 0 135 0;
#X connect 76 0 69 0;
#X connect 76 0 89 0;
#X connect 76 0 77 0;
#X connect 76 0 114 0;
#X connect 77 0 78 0;
#X connect 78 0 79 0;
#X connect 79 0 80 1;
#X connect 80 0 102 0;
#X connect 80 0 122 0;
#X connect 81 0 50 0;
#X connect 82 0 49 0;
#X connect 83 0 75 1;
#X connect 84 0 76 1;
#X connect 85 0 56 1;
#X connect 86 0 65 1;
#X connect 87 0 65 1;
#X connect 88 0 56 1;
#X connect 89 0 66 0;
#X connect 91 0 105 0;
#X connect 93 0 91 0;
#X connect 94 0 142 1;
#X connect 95 0 144 1;
#X connect 96 0 144 1;
#X connect 97 0 133 0;
#X connect 98 0 97 1;
#X connect 99 0 97 2;
#X connect 100 0 97 3;
#X connect 101 0 97 4;
#X connect 103 0 104 0;
#X connect 104 0 122 0;
#X connect 105 0 122 0;
#X connect 106 0 103 0;
#X connect 109 0 113 1;
#X connect 111 0 113 0;
#X connect 112 0 111 0;
#X connect 114 0 112 0;
#X connect 115 0 34 0;
#X connect 115 0 35 0;
#X connect 115 0 75 0;
#X connect 115 0 76 0;
#X connect 116 0 33 0;
#X connect 116 0 92 0;
#X connect 116 0 44 0;
#X connect 117 0 83 0;
#X connect 117 0 84 0;
#X connect 117 0 107 0;
#X connect 118 0 119 0;
#X connect 119 0 121 0;
#X connect 119 0 41 0;
#X connect 119 0 85 0;
#X connect 119 0 43 0;
#X connect 119 0 86 0;
#X connect 120 0 46 1;
#X connect 120 0 130 0;
#X connect 120 0 136 0;
#X connect 120 0 142 1;
#X connect 120 0 143 1;
#X connect 120 0 144 1;
#X connect 122 0 17 0;
#X connect 122 0 17 1;
#X connect 123 0 67 0;
#X connect 125 0 124 0;
#X connect 125 0 126 0;
#X connect 125 0 129 0;
#X connect 125 0 131 0;
#X connect 126 0 127 0;
#X connect 129 0 128 0;
#X connect 130 0 98 0;
#X connect 130 0 101 0;
#X connect 131 0 132 0;
#X connect 133 0 23 0;
#X connect 134 0 22 0;
#X connect 135 0 59 0;
#X connect 137 0 14 0;
#X connect 138 0 58 0;
#X connect 139 0 137 1;
#X connect 140 0 15 0;
#X connect 141 0 138 1;
#X connect 142 0 18 0;
#X connect 143 0 52 0;
#X connect 144 0 61 0;
